<svg version="1.1" id="Layer_1" xmlns="http://www.w3.org/2000/svg" xmlns:xlink="http://www.w3.org/1999/xlink" x="0px" y="0px"
	 width="100%" viewBox="0 0 496 496" enable-background="new 0 0 496 496" xml:space="preserve">
<path fill="#000000" opacity="1.000000" stroke="none" 
	d="
M266.000000,497.000000 
	C177.333359,497.000000 89.166710,497.000000 1.000047,497.000000 
	C1.000031,331.666718 1.000031,166.333450 1.000016,1.000136 
	C166.333237,1.000091 331.666473,1.000091 496.999756,1.000045 
	C496.999847,166.333191 496.999847,331.666382 496.999939,496.999786 
	C420.166656,497.000000 343.333344,497.000000 266.000000,497.000000 
M150.972290,41.505833 
	C148.997604,39.249996 147.106476,36.913956 145.032394,34.753544 
	C139.095749,28.569786 135.441589,28.972618 131.247894,36.444439 
	C126.193954,45.448917 123.287521,55.084160 123.301178,65.510719 
	C123.309471,71.840034 123.922241,78.280525 122.973915,84.473610 
	C121.443802,94.466072 121.084877,104.220345 123.316849,114.153976 
	C127.408958,132.366302 131.360931,150.551025 141.910751,166.489716 
	C146.620392,173.605042 150.211945,181.298645 151.220200,189.949402 
	C153.383575,208.511047 157.642731,226.668701 163.533890,244.316467 
	C166.621933,253.567108 166.401108,262.657013 165.903107,271.880798 
	C164.804001,292.237762 169.351242,311.110199 179.517883,328.708496 
	C186.179184,340.239136 196.949966,347.352570 207.524429,354.606598 
	C224.878326,366.511200 242.614243,377.622253 263.610199,382.299805 
	C273.039215,384.400452 282.707306,385.205475 291.783417,382.999451 
	C303.722626,380.097473 314.188324,373.383026 321.481842,363.130707 
	C328.179443,353.716125 333.944580,343.896576 331.219543,331.214233 
	C330.398926,327.395203 330.653717,321.724457 335.800873,320.171906 
	C346.385986,316.979034 351.162537,309.190826 354.042725,299.467194 
	C359.634735,280.587952 367.482758,262.571472 375.107452,244.469666 
	C378.758331,235.802124 381.193909,226.928268 380.813599,217.351898 
	C380.378723,206.401260 378.335449,195.616425 378.100037,184.624832 
	C377.893860,175.000366 376.092834,165.461273 373.661102,156.096039 
	C372.773590,152.677917 371.072479,150.077759 367.197174,149.035248 
	C365.539337,153.456451 361.907349,154.174988 357.922363,154.342026 
	C355.264923,154.453415 352.617828,154.800568 349.960632,154.930817 
	C346.048523,155.122574 342.086060,155.142410 340.152252,150.797928 
	C338.280396,146.592758 339.847748,138.959961 343.176880,136.380493 
	C346.971649,133.440277 350.910767,134.104553 354.810364,136.406433 
	C356.630463,137.480820 357.829834,139.589111 360.126862,139.731506 
	C361.699799,139.142548 362.159058,137.783661 362.402618,136.531540 
	C364.747986,124.474319 368.276245,112.524719 367.591217,100.102478 
	C366.806183,85.866051 364.099823,71.808624 364.286835,57.425625 
	C364.378876,50.344330 361.369232,43.441582 357.058136,37.494892 
	C353.666718,32.816780 351.686218,32.680119 347.470825,36.735134 
	C344.925140,39.183975 342.887268,42.075623 341.339844,45.207497 
	C332.822784,62.445473 319.709595,75.772575 305.651001,88.494110 
	C299.564270,94.001991 293.219330,95.584442 285.282715,95.272034 
	C262.781036,94.386284 240.318573,94.956215 218.400375,101.102776 
	C215.345154,101.959549 213.065109,101.418198 210.831039,99.025490 
	C205.374435,93.181389 199.744843,87.499641 193.626694,82.319122 
	C178.763092,69.733444 163.145294,57.931877 150.972290,41.505833 
M174.703400,439.787140 
	C201.952957,463.637817 233.130814,476.314941 269.869324,473.765503 
	C296.420990,471.922913 314.546417,456.958496 323.341858,434.303955 
	C330.793823,415.109863 331.163330,394.621124 331.601532,374.294189 
	C331.629242,373.007599 331.743713,371.523132 329.653381,371.046173 
	C327.426819,372.371429 326.346985,374.885315 324.782196,376.950073 
	C309.091797,397.653046 288.497833,406.727386 262.706635,402.381775 
	C237.828735,398.190094 216.210495,386.694061 196.319824,371.534210 
	C180.998093,359.856598 169.961411,345.299835 164.914505,326.506775 
	C163.491470,321.207855 162.062668,315.910217 160.584946,310.626434 
	C160.115387,308.947510 160.226227,306.915558 157.841766,305.851685 
	C154.631500,308.334595 153.482605,312.869812 149.861130,314.976440 
	C145.625397,317.440308 143.752472,321.400879 142.362427,325.764923 
	C137.725006,340.324127 137.314743,355.181427 139.275467,370.195465 
	C142.817459,397.318024 152.534180,421.329926 174.703400,439.787140 
z"/>
<path fill="#000000" opacity="1.000000" stroke="none" 
	d="
M303.690155,282.048798 
	C305.699615,278.013184 307.583679,278.488251 309.435455,281.708191 
	C309.682983,282.138550 309.843506,282.618011 310.075195,283.058472 
	C311.492950,285.753632 310.587830,290.314606 314.173492,291.052399 
	C319.461548,292.140411 324.984558,291.163513 330.307159,290.181305 
	C332.328125,289.808380 333.527191,282.409363 332.218719,279.814758 
	C331.621826,278.631165 330.871552,277.525635 330.208008,276.374817 
	C327.077332,270.945190 327.558136,267.041962 331.874207,262.580841 
	C333.778015,260.613068 335.334045,260.790253 336.407196,263.349640 
	C338.226562,267.688568 341.200897,271.289154 343.808685,275.125427 
	C348.052979,281.369019 349.073853,288.487366 348.090637,295.628632 
	C347.444458,300.322205 342.355621,299.772308 339.640198,298.783539 
	C334.957489,297.078308 330.967133,297.553619 326.726135,299.430542 
	C324.841278,300.264771 322.887024,300.004181 320.863403,299.649414 
	C316.721252,298.923279 312.571808,298.836700 308.811890,301.251434 
	C306.225616,302.912445 303.686951,302.410736 301.304626,300.928955 
	C298.682190,299.297821 300.463776,296.947601 300.784729,295.042999 
	C301.499451,290.801941 302.628662,286.630768 303.690155,282.048798 
z"/>
<path fill="#000000" opacity="1.000000" stroke="none" 
	d="
M319.547668,160.351822 
	C328.158661,158.054596 334.945435,161.381454 341.052551,166.315536 
	C344.626343,169.202866 344.422302,172.864532 340.938324,176.024551 
	C338.878662,177.892715 337.569702,180.042221 336.809692,182.675278 
	C336.259003,184.583237 335.552338,186.469818 334.693359,188.259430 
	C333.490265,190.766068 332.560822,193.898560 329.204224,194.090164 
	C326.028564,194.271439 324.726410,191.396149 323.571381,189.104050 
	C320.725586,183.456741 316.981964,179.038147 311.179779,175.990952 
	C305.448395,172.980957 305.538116,168.489395 310.733093,164.684769 
	C313.296356,162.807480 316.176910,161.499985 319.547668,160.351822 
z"/>
<path fill="#000000" opacity="1.000000" stroke="none" 
	d="
M227.658981,138.176208 
	C240.500870,136.599518 248.719955,141.025330 252.334030,150.838898 
	C253.800613,154.821259 252.192429,157.512589 248.664139,157.992538 
	C238.466736,159.379730 228.159744,160.854401 218.035156,157.334015 
	C214.354935,156.054367 210.287613,154.529175 209.960861,150.164337 
	C209.655655,146.087265 213.249359,143.909271 216.468338,142.048782 
	C219.807159,140.119034 223.410736,138.867798 227.658981,138.176208 
z"/>
<path fill="#000000" opacity="1.000000" stroke="none" 
	d="
M313.020630,213.997742 
	C312.525452,213.444046 312.108612,212.767960 312.260590,212.596756 
	C318.917450,205.097366 329.930786,203.411087 338.406281,208.538345 
	C340.823486,210.000656 343.177490,211.497040 346.114471,211.893448 
	C349.032227,212.287262 350.410461,213.821716 349.640930,217.113464 
	C348.304688,222.829178 347.161102,228.598846 342.296783,232.549454 
	C339.896118,234.499146 340.531830,237.449585 339.448700,239.816513 
	C338.826843,241.175339 338.560150,242.832947 336.828918,243.155029 
	C335.005310,243.494324 334.290375,241.910080 333.388733,240.746811 
	C333.286743,240.615189 333.188904,240.480347 333.089264,240.346924 
	C327.037903,232.243530 328.571075,225.858749 337.779633,221.436844 
	C337.496521,219.018036 335.357666,217.256607 335.271057,214.639313 
	C335.216888,213.001740 333.506683,213.260788 332.113220,213.152176 
	C325.809967,212.660934 319.622894,214.030792 313.020630,213.997742 
z"/>
<path fill="#000000" opacity="1.000000" stroke="none" 
	d="
M254.811905,273.139526 
	C256.991028,276.105560 258.884613,278.694763 262.509979,275.280243 
	C263.949371,273.924561 265.831177,274.411560 266.762329,276.121918 
	C268.702301,279.685211 271.284729,282.199860 274.959778,284.215942 
	C277.528564,285.625122 278.785614,289.059479 279.507080,292.796722 
	C274.525421,293.471130 269.649200,295.774323 266.053253,290.254089 
	C265.350525,289.175293 264.459381,289.335480 263.465820,289.297180 
	C262.318756,289.252991 260.645233,289.473999 260.119293,288.829681 
	C255.983383,283.762665 249.836304,282.026611 244.007034,279.386536 
	C245.664520,275.085602 247.305878,271.392548 249.679672,268.093018 
	C252.851471,268.427856 253.271927,271.103088 254.811905,273.139526 
z"/>
<path fill="#000000" opacity="1.000000" stroke="none" 
	d="
M252.832626,239.017029 
	C255.751434,232.978806 259.665283,230.595016 265.298065,231.182922 
	C263.859833,237.279846 259.758759,246.494873 257.119598,249.168823 
	C254.408173,246.408066 250.898270,244.210419 252.832626,239.017029 
z"/>
<path fill="#000000" opacity="1.000000" stroke="none" 
	d="
M297.988770,232.684738 
	C293.410248,229.343323 292.784241,224.288132 293.787109,220.017227 
	C294.733948,215.984924 299.554626,215.838562 304.133392,215.471039 
	C303.501862,221.915527 303.688019,228.129761 297.988770,232.684738 
z"/>
</svg>